<?xml version="1.0" encoding="utf-8"?>
<!-- Generator: Adobe Illustrator 16.2.1, SVG Export Plug-In . SVG Version: 6.00 Build 0)  -->
<!DOCTYPE svg PUBLIC "-//W3C//DTD SVG 1.1//EN" "http://www.w3.org/Graphics/SVG/1.1/DTD/svg11.dtd">
<svg version="1.1" id="Layer_1" xmlns="http://www.w3.org/2000/svg" xmlns:xlink="http://www.w3.org/1999/xlink" x="0px" y="0px"
	 width="286px" height="286px" viewBox="-6 0 286 286" enable-background="new -6 0 286 286" xml:space="preserve">
<g id="Hover_-_Checked">
	<g>
		<path fill="#FFFFFF" d="M2,285c-3.859,0-7-3.141-7-7v-54c0-3.859,3.141-7,7-7h54.001c3.858,0,7,3.141,7,7v54c0,3.859-3.142,7-7,7
			H2z"/>
		<path fill="#CCC5B9" d="M56.001,218c3.309,0,6,2.691,6,6v54c0,3.311-2.691,6-6,6H2c-3.31,0-6-2.689-6-6v-54c0-3.309,2.69-6,6-6
			H56.001 M56.001,216H2c-4.418,0-8,3.582-8,8v54c0,4.418,3.582,8,8,8h54.001c4.418,0,8-3.582,8-8v-54
			C64.001,219.582,60.419,216,56.001,216L56.001,216z"/>
	</g>
	<polygon fill="#403D39" points="44.012,233.941 23.543,254.412 13.99,244.859 7.167,251.683 23.543,268.058 50.834,240.765 	"/>
</g>
<g id="Idle_-_Checked">
	<g>
		<path fill="#FCFCFB" d="M74,213c-3.859,0-7-3.141-7-7v-54c0-3.859,3.141-7,7-7H128c3.858,0,7,3.141,7,7v54c0,3.859-3.142,7-7,7H74
			z"/>
		<path fill="#CCC5B9" d="M128,146c3.309,0,6,2.691,6,6v54c0,3.31-2.691,6-6,6H74c-3.31,0-6-2.69-6-6v-54c0-3.309,2.69-6,6-6H128
			 M128,144H74c-4.418,0-8,3.581-8,7.999v54c0,4.418,3.582,8,8,8H128c4.418,0,8-3.582,8-8v-54C136,147.582,132.418,144,128,144
			L128,144z"/>
	</g>
	<polygon fill="#403D39" points="116.011,161.942 95.542,182.412 85.989,172.859 79.167,179.682 95.542,196.057 122.833,168.765
		"/>
</g>
<g id="Hover_-_Unchecked">
	<g>
		<path fill="#FFFFFF" d="M145.999,141c-3.858,0-7-3.141-7-7V80c0-3.86,3.142-7,7-7H200c3.858,0,7,3.14,7,7v54c0,3.859-3.142,7-7,7
			H145.999z"/>
		<path fill="#CCC5B9" d="M200,74c3.309,0,6,2.69,6,6v54c0,3.309-2.691,6-6,6h-54.002c-3.309,0-6-2.691-6-6V80c0-3.31,2.691-6,6-6
			H200 M200,72h-54.002c-4.418,0-7.999,3.582-7.999,8v54c0,4.418,3.581,8,7.999,8H200c4.418,0,8-3.582,8-8V80
			C208,75.583,204.418,72,200,72L200,72z"/>
	</g>
</g>
<g id="Idle_-_Unchecked">
	<g>
		<path fill="#FCFCFB" d="M218,69c-3.859,0-7-3.14-7-7V8c0-3.86,3.141-7,7-7h54c3.859,0,7,3.14,7,7v54c0,3.86-3.141,7-7,7H218z"/>
		<path fill="#CCC5B9" d="M272,2c3.31,0,6,2.691,6,6v54c0,3.309-2.69,6-6,6h-54c-3.31,0-6-2.691-6-6V8c0-3.309,2.69-6,6-6H272
			 M272,0h-54c-4.418,0-8,3.582-8,8v54c0,4.418,3.582,8,8,8h54c4.418,0,8-3.582,8-8V8C280,3.582,276.418,0,272,0L272,0z"/>
	</g>
</g>
</svg>
